<?xml version="1.0" encoding="UTF-8" standalone="no"?>
<!-- Generator: Adobe Illustrator 20.1.0, SVG Export Plug-In . SVG Version: 6.00 Build 0)  -->

<svg
   xmlns:dc="http://purl.org/dc/elements/1.1/"
   xmlns:cc="http://creativecommons.org/ns#"
   xmlns:rdf="http://www.w3.org/1999/02/22-rdf-syntax-ns#"
   xmlns:svg="http://www.w3.org/2000/svg"
   xmlns="http://www.w3.org/2000/svg"
   xmlns:sodipodi="http://sodipodi.sourceforge.net/DTD/sodipodi-0.dtd"
   xmlns:inkscape="http://www.inkscape.org/namespaces/inkscape"
   version="1.1"
   id="Ebene_1"
   x="0px"
   y="0px"
   viewBox="0 0 144.41 130.53999"
   xml:space="preserve"
   sodipodi:docname="HiGHmed-logo_dot.svg"
   width="144.41"
   height="130.53999"
   inkscape:version="0.92.3 (2405546, 2018-03-11)"
   inkscape:export-filename="C:\Users\hhund\Downloads\HiGHmed-logo_dot.png"
   inkscape:export-xdpi="599.64191"
   inkscape:export-ydpi="599.64191"><metadata
   id="metadata258"><rdf:RDF><cc:Work
       rdf:about=""><dc:format>image/svg+xml</dc:format><dc:type
         rdf:resource="http://purl.org/dc/dcmitype/StillImage" /><dc:title></dc:title></cc:Work></rdf:RDF></metadata><defs
   id="defs256" /><sodipodi:namedview
   pagecolor="#ffffff"
   bordercolor="#666666"
   borderopacity="1"
   objecttolerance="10"
   gridtolerance="10"
   guidetolerance="10"
   inkscape:pageopacity="0"
   inkscape:pageshadow="2"
   inkscape:window-width="2560"
   inkscape:window-height="1357"
   id="namedview254"
   showgrid="false"
   fit-margin-top="0"
   fit-margin-left="0"
   fit-margin-right="0"
   fit-margin-bottom="0"
   inkscape:zoom="5.2248771"
   inkscape:cx="63.637022"
   inkscape:cy="50.275002"
   inkscape:window-x="2551"
   inkscape:window-y="-9"
   inkscape:window-maximized="1"
   inkscape:current-layer="Ebene_1" />
<style
   type="text/css"
   id="style135">
	.st0{fill:#DADADA;}
	.st1{fill:#36A9E1;}
	.st2{fill:#29235C;}
</style>


<rect
   id="rect3996"
   width="144.3096"
   height="130.338"
   x="0"
   y="0"
   style="fill:#ffffff;stroke-width:0.92287081" /><g
   id="g3994"
   transform="translate(15.000002,-15)"><circle
     style="fill:#dadada"
     id="circle137"
     r="50.27"
     cy="80.269997"
     cx="50.27"
     class="st0" /><g
     transform="translate(0,29.999999)"
     id="g167">
	<path
   style="fill:#36a9e1"
   inkscape:connector-curvature="0"
   id="path139"
   d="m 23.83,41.6 c 0,1.28 1.04,2.32 2.32,2.32 h 74.51 c 1.28,0 2.32,-1.04 2.32,-2.32 0,-1.28 -1.04,-2.32 -2.32,-2.32 h -74.5 c -1.28,-0.01 -2.33,1.04 -2.33,2.32 z"
   class="st1" />
	<path
   style="fill:#36a9e1"
   inkscape:connector-curvature="0"
   id="path141"
   d="m 23.83,53.09 c 0,1.28 1.04,2.32 2.32,2.32 h 74.51 c 1.28,0 2.32,-1.04 2.32,-2.32 0,-1.28 -1.04,-2.32 -2.32,-2.32 h -74.5 c -1.28,0 -2.33,1.05 -2.33,2.32 z"
   class="st1" />
	<path
   style="fill:#36a9e1"
   inkscape:connector-curvature="0"
   id="path143"
   d="m 76.56,30.1 c 0,1.28 1.04,2.32 2.32,2.32 h 21.79 c 1.28,0 2.32,-1.04 2.32,-2.32 0,-1.28 -1.04,-2.32 -2.32,-2.32 H 78.88 c -1.28,0 -2.32,1.04 -2.32,2.32 z"
   class="st1" />
	<path
   style="fill:#36a9e1"
   inkscape:connector-curvature="0"
   id="path145"
   d="M 100.67,16.28 H 78.88 c -1.28,0 -2.32,1.04 -2.32,2.32 0,1.28 1.04,2.32 2.32,2.32 h 21.79 c 1.28,0 2.32,-1.04 2.32,-2.32 0,-1.28 -1.04,-2.32 -2.32,-2.32 z"
   class="st1" />
	<path
   style="fill:#36a9e1"
   inkscape:connector-curvature="0"
   id="path147"
   d="m 102.99,7.1 c 0,-1.28 -1.04,-2.32 -2.32,-2.32 H 78.88 c -1.28,0 -2.32,1.04 -2.32,2.32 0,1.28 1.04,2.32 2.32,2.32 h 21.79 c 1.28,0 2.32,-1.04 2.32,-2.32 z"
   class="st1" />
	<path
   style="fill:#36a9e1"
   inkscape:connector-curvature="0"
   id="path149"
   d="m 76.56,87.59 c 0,1.28 1.04,2.32 2.32,2.32 h 21.79 c 1.28,0 2.32,-1.04 2.32,-2.32 0,-1.28 -1.04,-2.32 -2.32,-2.32 H 78.88 c -1.28,0 -2.32,1.04 -2.32,2.32 z"
   class="st1" />
	<path
   style="fill:#36a9e1"
   inkscape:connector-curvature="0"
   id="path151"
   d="m 76.56,76.09 c 0,1.28 1.04,2.32 2.32,2.32 h 21.79 c 1.28,0 2.32,-1.04 2.32,-2.32 0,-1.28 -1.04,-2.32 -2.32,-2.32 H 78.88 c -1.28,0 -2.32,1.04 -2.32,2.32 z"
   class="st1" />
	<path
   style="fill:#36a9e1"
   inkscape:connector-curvature="0"
   id="path153"
   d="m 76.56,64.59 c 0,1.28 1.04,2.32 2.32,2.32 h 21.79 c 1.28,0 2.32,-1.04 2.32,-2.32 0,-1.28 -1.04,-2.32 -2.32,-2.32 H 78.88 c -1.28,0 -2.32,1.04 -2.32,2.32 z"
   class="st1" />
	<path
   style="fill:#36a9e1"
   inkscape:connector-curvature="0"
   id="path155"
   d="m 50.27,30.1 c 0,-1.28 -1.04,-2.32 -2.32,-2.32 H 26.16 c -1.28,0 -2.32,1.04 -2.32,2.32 0,1.28 1.04,2.32 2.32,2.32 h 21.79 c 1.28,0 2.32,-1.04 2.32,-2.32 z"
   class="st1" />
	<path
   style="fill:#36a9e1"
   inkscape:connector-curvature="0"
   id="path157"
   d="m 50.27,18.6 c 0,-1.28 -1.04,-2.32 -2.32,-2.32 H 26.16 c -1.28,0 -2.32,1.04 -2.32,2.32 0,1.28 1.04,2.32 2.32,2.32 h 21.79 c 1.28,0 2.32,-1.04 2.32,-2.32 z"
   class="st1" />
	<path
   style="fill:#36a9e1"
   inkscape:connector-curvature="0"
   id="path159"
   d="m 47.95,9.42 c 1.28,0 2.32,-1.04 2.32,-2.32 0,-1.28 -1.04,-2.32 -2.32,-2.32 H 26.16 c -1.28,0 -2.32,1.04 -2.32,2.32 0,1.28 1.04,2.32 2.32,2.32 z"
   class="st1" />
	<path
   style="fill:#36a9e1"
   inkscape:connector-curvature="0"
   id="path161"
   d="m 23.83,87.59 c 0,1.28 1.04,2.32 2.32,2.32 h 21.79 c 1.28,0 2.32,-1.04 2.32,-2.32 0,-1.28 -1.04,-2.32 -2.32,-2.32 H 26.16 c -1.28,0 -2.33,1.04 -2.33,2.32 z"
   class="st1" />
	<path
   style="fill:#36a9e1"
   inkscape:connector-curvature="0"
   id="path163"
   d="m 23.83,76.09 c 0,1.28 1.04,2.32 2.32,2.32 h 21.79 c 1.28,0 2.32,-1.04 2.32,-2.32 0,-1.28 -1.04,-2.32 -2.32,-2.32 H 26.16 c -1.28,0 -2.33,1.04 -2.33,2.32 z"
   class="st1" />
	<path
   style="fill:#36a9e1"
   inkscape:connector-curvature="0"
   id="path165"
   d="m 26.16,66.91 h 21.79 c 1.28,0 2.32,-1.04 2.32,-2.32 0,-1.28 -1.04,-2.32 -2.32,-2.32 H 26.16 c -1.28,0 -2.32,1.04 -2.32,2.32 -0.01,1.28 1.04,2.32 2.32,2.32 z"
   class="st1" />
</g><g
     transform="translate(0,29.999999)"
     id="g197">
	<path
   style="fill:#29235c"
   inkscape:connector-curvature="0"
   id="path169"
   d="m 35.26,50.86 c 0,1.28 1.04,2.32 2.32,2.32 h 74.51 c 1.28,0 2.32,-1.04 2.32,-2.32 0,-1.28 -1.04,-2.32 -2.32,-2.32 H 37.58 c -1.28,0 -2.32,1.04 -2.32,2.32 z"
   class="st2" />
	<path
   style="fill:#29235c"
   inkscape:connector-curvature="0"
   id="path171"
   d="m 35.26,62.36 c 0,1.28 1.04,2.32 2.32,2.32 h 74.51 c 1.28,0 2.32,-1.04 2.32,-2.32 0,-1.28 -1.04,-2.32 -2.32,-2.32 H 37.58 c -1.28,0 -2.32,1.04 -2.32,2.32 z"
   class="st2" />
	<path
   style="fill:#29235c"
   inkscape:connector-curvature="0"
   id="path173"
   d="m 87.98,39.36 c 0,1.28 1.04,2.32 2.32,2.32 h 21.79 c 1.28,0 2.32,-1.04 2.32,-2.32 0,-1.28 -1.04,-2.32 -2.32,-2.32 H 90.3 c -1.28,0 -2.32,1.04 -2.32,2.32 z"
   class="st2" />
	<path
   style="fill:#29235c"
   inkscape:connector-curvature="0"
   id="path175"
   d="M 112.09,25.54 H 90.3 c -1.28,0 -2.32,1.04 -2.32,2.32 0,1.28 1.04,2.32 2.32,2.32 h 21.79 c 1.28,0 2.32,-1.04 2.32,-2.32 0,-1.28 -1.04,-2.32 -2.32,-2.32 z"
   class="st2" />
	<path
   style="fill:#29235c"
   inkscape:connector-curvature="0"
   id="path177"
   d="m 114.41,16.36 c 0,-1.28 -1.04,-2.32 -2.32,-2.32 H 90.3 c -1.28,0 -2.32,1.04 -2.32,2.32 0,1.28 1.04,2.32 2.32,2.32 h 21.79 c 1.28,0 2.32,-1.04 2.32,-2.32 z"
   class="st2" />
	<path
   style="fill:#29235c"
   inkscape:connector-curvature="0"
   id="path179"
   d="m 87.98,96.85 c 0,1.28 1.04,2.32 2.32,2.32 h 21.79 c 1.28,0 2.32,-1.04 2.32,-2.32 0,-1.28 -1.04,-2.32 -2.32,-2.32 H 90.3 c -1.28,0 -2.32,1.05 -2.32,2.32 z"
   class="st2" />
	<path
   style="fill:#29235c"
   inkscape:connector-curvature="0"
   id="path181"
   d="m 87.98,85.36 c 0,1.28 1.04,2.32 2.32,2.32 h 21.79 c 1.28,0 2.32,-1.04 2.32,-2.32 0,-1.28 -1.04,-2.32 -2.32,-2.32 H 90.3 c -1.28,0 -2.32,1.04 -2.32,2.32 z"
   class="st2" />
	<path
   style="fill:#29235c"
   inkscape:connector-curvature="0"
   id="path183"
   d="m 87.98,73.86 c 0,1.28 1.04,2.32 2.32,2.32 h 21.79 c 1.28,0 2.32,-1.04 2.32,-2.32 0,-1.28 -1.04,-2.32 -2.32,-2.32 H 90.3 c -1.28,0 -2.32,1.04 -2.32,2.32 z"
   class="st2" />
	<path
   style="fill:#29235c"
   inkscape:connector-curvature="0"
   id="path185"
   d="m 61.69,39.36 c 0,-1.28 -1.04,-2.32 -2.32,-2.32 H 37.58 c -1.28,0 -2.32,1.04 -2.32,2.32 0,1.28 1.04,2.32 2.32,2.32 h 21.79 c 1.28,0 2.32,-1.04 2.32,-2.32 z"
   class="st2" />
	<path
   style="fill:#29235c"
   inkscape:connector-curvature="0"
   id="path187"
   d="m 61.69,27.86 c 0,-1.28 -1.04,-2.32 -2.32,-2.32 H 37.58 c -1.28,0 -2.32,1.04 -2.32,2.32 0,1.28 1.04,2.32 2.32,2.32 h 21.79 c 1.28,0 2.32,-1.04 2.32,-2.32 z"
   class="st2" />
	<path
   style="fill:#29235c"
   inkscape:connector-curvature="0"
   id="path189"
   d="m 59.37,18.68 c 1.28,0 2.32,-1.04 2.32,-2.32 0,-1.28 -1.04,-2.32 -2.32,-2.32 H 37.58 c -1.28,0 -2.32,1.04 -2.32,2.32 0,1.28 1.04,2.32 2.32,2.32 z"
   class="st2" />
	<path
   style="fill:#29235c"
   inkscape:connector-curvature="0"
   id="path191"
   d="m 35.26,96.85 c 0,1.28 1.04,2.32 2.32,2.32 h 21.79 c 1.28,0 2.32,-1.04 2.32,-2.32 0,-1.28 -1.04,-2.32 -2.32,-2.32 H 37.58 c -1.28,0 -2.32,1.05 -2.32,2.32 z"
   class="st2" />
	<path
   style="fill:#29235c"
   inkscape:connector-curvature="0"
   id="path193"
   d="m 35.26,85.36 c 0,1.28 1.04,2.32 2.32,2.32 h 21.79 c 1.28,0 2.32,-1.04 2.32,-2.32 0,-1.28 -1.04,-2.32 -2.32,-2.32 H 37.58 c -1.28,0 -2.32,1.04 -2.32,2.32 z"
   class="st2" />
	<path
   style="fill:#29235c"
   inkscape:connector-curvature="0"
   id="path195"
   d="m 37.58,76.18 h 21.79 c 1.28,0 2.32,-1.04 2.32,-2.32 0,-1.28 -1.04,-2.32 -2.32,-2.32 H 37.58 c -1.28,0 -2.32,1.04 -2.32,2.32 0,1.28 1.04,2.32 2.32,2.32 z"
   class="st2" />
</g></g>


</svg>