<?xml version="1.0" encoding="utf-8"?>
<!-- Generator: Adobe Illustrator 20.1.0, SVG Export Plug-In . SVG Version: 6.00 Build 0)  -->
<svg version="1.1" id="Ebene_1" xmlns="http://www.w3.org/2000/svg" xmlns:xlink="http://www.w3.org/1999/xlink" x="0px" y="0px"
	 viewBox="0 0 351.97 100.53" style="enable-background:new 0 0 351.97 100.53;" xml:space="preserve">
<style type="text/css">
	.st0{fill:#DADADA;}
	.st1{fill:#36A9E1;}
	.st2{fill:#29235C;}
</style>
<circle class="st0" cx="50.27" cy="50.27" r="50.27"/>
<g>
	<path class="st1" d="M23.83,41.6c0,1.28,1.04,2.32,2.32,2.32h74.51c1.28,0,2.32-1.04,2.32-2.32c0-1.28-1.04-2.32-2.32-2.32H26.16
		C24.88,39.27,23.83,40.32,23.83,41.6z"/>
	<path class="st1" d="M23.83,53.09c0,1.28,1.04,2.32,2.32,2.32h74.51c1.28,0,2.32-1.04,2.32-2.32c0-1.28-1.04-2.32-2.32-2.32H26.16
		C24.88,50.77,23.83,51.82,23.83,53.09z"/>
	<path class="st1" d="M76.56,30.1c0,1.28,1.04,2.32,2.32,2.32h21.79c1.28,0,2.32-1.04,2.32-2.32c0-1.28-1.04-2.32-2.32-2.32H78.88
		C77.6,27.78,76.56,28.82,76.56,30.1z"/>
	<path class="st1" d="M100.67,16.28H78.88c-1.28,0-2.32,1.04-2.32,2.32c0,1.28,1.04,2.32,2.32,2.32h21.79
		c1.28,0,2.32-1.04,2.32-2.32C102.99,17.32,101.95,16.28,100.67,16.28z"/>
	<path class="st1" d="M102.99,7.1c0-1.28-1.04-2.32-2.32-2.32H78.88c-1.28,0-2.32,1.04-2.32,2.32c0,1.28,1.04,2.32,2.32,2.32h21.79
		C101.95,9.42,102.99,8.38,102.99,7.1z"/>
	<path class="st1" d="M76.56,87.59c0,1.28,1.04,2.32,2.32,2.32h21.79c1.28,0,2.32-1.04,2.32-2.32s-1.04-2.32-2.32-2.32H78.88
		C77.6,85.27,76.56,86.31,76.56,87.59z"/>
	<path class="st1" d="M76.56,76.09c0,1.28,1.04,2.32,2.32,2.32h21.79c1.28,0,2.32-1.04,2.32-2.32s-1.04-2.32-2.32-2.32H78.88
		C77.6,73.77,76.56,74.81,76.56,76.09z"/>
	<path class="st1" d="M76.56,64.59c0,1.28,1.04,2.32,2.32,2.32h21.79c1.28,0,2.32-1.04,2.32-2.32c0-1.28-1.04-2.32-2.32-2.32H78.88
		C77.6,62.27,76.56,63.31,76.56,64.59z"/>
	<path class="st1" d="M50.27,30.1c0-1.28-1.04-2.32-2.32-2.32H26.16c-1.28,0-2.32,1.04-2.32,2.32c0,1.28,1.04,2.32,2.32,2.32h21.79
		C49.23,32.42,50.27,31.38,50.27,30.1z"/>
	<path class="st1" d="M50.27,18.6c0-1.28-1.04-2.32-2.32-2.32H26.16c-1.28,0-2.32,1.04-2.32,2.32c0,1.28,1.04,2.32,2.32,2.32h21.79
		C49.23,20.92,50.27,19.88,50.27,18.6z"/>
	<path class="st1" d="M47.95,9.42c1.28,0,2.32-1.04,2.32-2.32c0-1.28-1.04-2.32-2.32-2.32H26.16c-1.28,0-2.32,1.04-2.32,2.32
		c0,1.28,1.04,2.32,2.32,2.32H47.95z"/>
	<path class="st1" d="M23.83,87.59c0,1.28,1.04,2.32,2.32,2.32h21.79c1.28,0,2.32-1.04,2.32-2.32s-1.04-2.32-2.32-2.32H26.16
		C24.88,85.27,23.83,86.31,23.83,87.59z"/>
	<path class="st1" d="M23.83,76.09c0,1.28,1.04,2.32,2.32,2.32h21.79c1.28,0,2.32-1.04,2.32-2.32s-1.04-2.32-2.32-2.32H26.16
		C24.88,73.77,23.83,74.81,23.83,76.09z"/>
	<path class="st1" d="M26.16,66.91h21.79c1.28,0,2.32-1.04,2.32-2.32c0-1.28-1.04-2.32-2.32-2.32H26.16c-1.28,0-2.32,1.04-2.32,2.32
		C23.83,65.87,24.88,66.91,26.16,66.91z"/>
</g>
<g>
	<path class="st2" d="M35.26,50.86c0,1.28,1.04,2.32,2.32,2.32h74.51c1.28,0,2.32-1.04,2.32-2.32s-1.04-2.32-2.32-2.32H37.58
		C36.3,48.54,35.26,49.58,35.26,50.86z"/>
	<path class="st2" d="M35.26,62.36c0,1.28,1.04,2.32,2.32,2.32h74.51c1.28,0,2.32-1.04,2.32-2.32c0-1.28-1.04-2.32-2.32-2.32H37.58
		C36.3,60.04,35.26,61.08,35.26,62.36z"/>
	<path class="st2" d="M87.98,39.36c0,1.28,1.04,2.32,2.32,2.32h21.79c1.28,0,2.32-1.04,2.32-2.32c0-1.28-1.04-2.32-2.32-2.32H90.3
		C89.02,37.04,87.98,38.08,87.98,39.36z"/>
	<path class="st2" d="M112.09,25.54H90.3c-1.28,0-2.32,1.04-2.32,2.32c0,1.28,1.04,2.32,2.32,2.32h21.79c1.28,0,2.32-1.04,2.32-2.32
		C114.41,26.58,113.37,25.54,112.09,25.54z"/>
	<path class="st2" d="M114.41,16.36c0-1.28-1.04-2.32-2.32-2.32H90.3c-1.28,0-2.32,1.04-2.32,2.32c0,1.28,1.04,2.32,2.32,2.32h21.79
		C113.37,18.68,114.41,17.64,114.41,16.36z"/>
	<path class="st2" d="M87.98,96.85c0,1.28,1.04,2.32,2.32,2.32h21.79c1.28,0,2.32-1.04,2.32-2.32s-1.04-2.32-2.32-2.32H90.3
		C89.02,94.53,87.98,95.58,87.98,96.85z"/>
	<path class="st2" d="M87.98,85.36c0,1.28,1.04,2.32,2.32,2.32h21.79c1.28,0,2.32-1.04,2.32-2.32s-1.04-2.32-2.32-2.32H90.3
		C89.02,83.04,87.98,84.08,87.98,85.36z"/>
	<path class="st2" d="M87.98,73.86c0,1.28,1.04,2.32,2.32,2.32h21.79c1.28,0,2.32-1.04,2.32-2.32s-1.04-2.32-2.32-2.32H90.3
		C89.02,71.54,87.98,72.58,87.98,73.86z"/>
	<path class="st2" d="M61.69,39.36c0-1.28-1.04-2.32-2.32-2.32H37.58c-1.28,0-2.32,1.04-2.32,2.32c0,1.28,1.04,2.32,2.32,2.32h21.79
		C60.65,41.68,61.69,40.64,61.69,39.36z"/>
	<path class="st2" d="M61.69,27.86c0-1.28-1.04-2.32-2.32-2.32H37.58c-1.28,0-2.32,1.04-2.32,2.32c0,1.28,1.04,2.32,2.32,2.32h21.79
		C60.65,30.18,61.69,29.14,61.69,27.86z"/>
	<path class="st2" d="M59.37,18.68c1.28,0,2.32-1.04,2.32-2.32c0-1.28-1.04-2.32-2.32-2.32H37.58c-1.28,0-2.32,1.04-2.32,2.32
		c0,1.28,1.04,2.32,2.32,2.32H59.37z"/>
	<path class="st2" d="M35.26,96.85c0,1.28,1.04,2.32,2.32,2.32h21.79c1.28,0,2.32-1.04,2.32-2.32s-1.04-2.32-2.32-2.32H37.58
		C36.3,94.53,35.26,95.58,35.26,96.85z"/>
	<path class="st2" d="M35.26,85.36c0,1.28,1.04,2.32,2.32,2.32h21.79c1.28,0,2.32-1.04,2.32-2.32s-1.04-2.32-2.32-2.32H37.58
		C36.3,83.04,35.26,84.08,35.26,85.36z"/>
	<path class="st2" d="M37.58,76.18h21.79c1.28,0,2.32-1.04,2.32-2.32s-1.04-2.32-2.32-2.32H37.58c-1.28,0-2.32,1.04-2.32,2.32
		S36.3,76.18,37.58,76.18z"/>
</g>
<g>
	<path class="st2" d="M137.86,63.11v-34.9c0-0.6,0.27-1.04,0.82-1.34c0.54-0.3,1.2-0.45,1.98-0.45c0.77,0,1.43,0.15,1.98,0.45
		c0.54,0.3,0.82,0.75,0.82,1.34v14.55h13.13V28.21c0-0.6,0.27-1.04,0.82-1.34c0.54-0.3,1.2-0.45,1.98-0.45
		c0.77,0,1.43,0.15,1.98,0.45c0.54,0.3,0.82,0.75,0.82,1.34v34.9c0,0.56-0.27,1.01-0.82,1.34c-0.55,0.33-1.2,0.5-1.98,0.5
		c-0.74,0-1.39-0.17-1.95-0.5c-0.56-0.33-0.84-0.78-0.84-1.34V47.19h-13.13v15.92c0,0.56-0.27,1.01-0.82,1.34
		c-0.54,0.33-1.2,0.5-1.98,0.5c-0.74,0-1.39-0.17-1.95-0.5C138.14,64.12,137.86,63.67,137.86,63.11z"/>
	<path class="st2" d="M173.02,30.79c0-0.81,0.32-1.49,0.95-2.06c0.63-0.56,1.39-0.84,2.27-0.84c0.88,0,1.63,0.28,2.27,0.84
		c0.63,0.56,0.95,1.25,0.95,2.06c0,0.77-0.32,1.45-0.95,2.03c-0.63,0.58-1.39,0.87-2.27,0.87c-0.88,0-1.63-0.29-2.27-0.87
		C173.34,32.24,173.02,31.57,173.02,30.79z M173.5,63.11V41.76c0-0.53,0.25-0.96,0.76-1.29c0.51-0.33,1.17-0.5,1.98-0.5
		c0.81,0,1.48,0.17,2,0.5c0.53,0.33,0.79,0.76,0.79,1.29v21.35c0,0.46-0.27,0.88-0.82,1.27c-0.55,0.39-1.2,0.58-1.98,0.58
		c-0.77,0-1.42-0.19-1.95-0.58C173.76,63.99,173.5,63.57,173.5,63.11z"/>
	<path class="st2" d="M189.74,53.52V38.17c0-4.04,1.07-7.01,3.22-8.91c2.14-1.9,4.96-2.85,8.44-2.85c3.55,0,6.44,0.89,8.67,2.66
		c2.23,1.78,3.35,4.14,3.35,7.09c0,1.02-0.22,1.72-0.66,2.11c-0.44,0.39-1.15,0.58-2.14,0.58c-1.83,0-2.76-0.62-2.79-1.85
		c-0.39-3.76-2.48-5.64-6.27-5.64c-4.15,0-6.22,2.27-6.22,6.8v15.34c0,4.53,2.07,6.8,6.22,6.8c2,0,3.55-0.56,4.64-1.69
		c1.09-1.13,1.63-2.84,1.63-5.14v-4.34h-5.33c-0.56,0-1-0.22-1.32-0.65s-0.47-0.96-0.47-1.59c0-0.56,0.16-1.06,0.47-1.51
		s0.76-0.68,1.32-0.68h9.07c0.56,0,1.01,0.18,1.34,0.55c0.33,0.37,0.5,0.82,0.5,1.34v6.91c0,4.04-1.08,7.01-3.24,8.91
		c-2.16,1.9-5.04,2.85-8.62,2.85c-3.58,0-6.45-0.95-8.59-2.85C190.81,60.53,189.74,57.56,189.74,53.52z"/>
	<path class="st2" d="M224.38,63.11v-34.9c0-0.6,0.27-1.04,0.82-1.34c0.54-0.3,1.2-0.45,1.98-0.45c0.77,0,1.43,0.15,1.98,0.45
		c0.54,0.3,0.82,0.75,0.82,1.34v14.55h13.13V28.21c0-0.6,0.27-1.04,0.82-1.34c0.54-0.3,1.2-0.45,1.98-0.45
		c0.77,0,1.43,0.15,1.98,0.45c0.54,0.3,0.82,0.75,0.82,1.34v34.9c0,0.56-0.27,1.01-0.82,1.34c-0.55,0.33-1.2,0.5-1.98,0.5
		c-0.74,0-1.39-0.17-1.95-0.5c-0.56-0.33-0.84-0.78-0.84-1.34V47.19h-13.13v15.92c0,0.56-0.27,1.01-0.82,1.34
		c-0.54,0.33-1.2,0.5-1.98,0.5c-0.74,0-1.39-0.17-1.95-0.5C224.66,64.12,224.38,63.67,224.38,63.11z"/>
	<path class="st2" d="M260.7,64.01V40.97c0-0.6,0.3-0.9,0.9-0.9c0.63,0,0.95,0.3,0.95,0.9v2.79c1.51-2.67,3.87-4.01,7.06-4.01
		c1.79,0,3.38,0.48,4.77,1.45c1.39,0.97,2.43,2.24,3.14,3.82c0.88-1.72,2.04-3.03,3.48-3.93c1.44-0.9,2.95-1.34,4.53-1.34
		c2.35,0,4.38,0.86,6.09,2.58c1.7,1.72,2.56,4.03,2.56,6.91v14.76c0,0.25-0.1,0.47-0.29,0.66c-0.19,0.19-0.41,0.29-0.66,0.29
		c-0.25,0-0.46-0.1-0.63-0.29c-0.18-0.19-0.26-0.41-0.26-0.66V49.24c0-2.39-0.69-4.26-2.08-5.61c-1.39-1.35-2.98-2.03-4.77-2.03
		c-1.86,0-3.52,0.69-4.96,2.08c-1.44,1.39-2.16,3.14-2.16,5.25v15.13c0,0.6-0.32,0.9-0.95,0.9c-0.6,0-0.9-0.3-0.9-0.9V48.98
		c0-2.07-0.66-3.82-1.98-5.25c-1.32-1.42-2.93-2.14-4.82-2.14c-1.9,0-3.57,0.7-5.01,2.11c-1.44,1.41-2.16,3.25-2.16,5.54v14.76
		c0,0.25-0.1,0.47-0.29,0.66c-0.19,0.19-0.41,0.29-0.66,0.29c-0.25,0-0.46-0.1-0.63-0.29C260.79,64.47,260.7,64.25,260.7,64.01z"/>
	<path class="st2" d="M305.2,55.68v-6.59c0-2.53,0.92-4.72,2.77-6.56c1.85-1.85,4.05-2.77,6.62-2.77c2.53,0,4.72,0.91,6.56,2.71
		c1.85,1.81,2.77,4.07,2.77,6.77c0,0.92-0.11,1.65-0.32,2.21c-0.21,0.56-0.56,0.97-1.05,1.21c-0.49,0.25-0.94,0.4-1.34,0.45
		c-0.4,0.05-0.96,0.08-1.66,0.08h-12.5v2.48c0,2.36,0.83,4.24,2.48,5.64c1.65,1.41,3.8,2.11,6.43,2.11c1.3,0,2.39-0.18,3.27-0.55
		c0.88-0.37,1.54-0.73,1.98-1.08c0.44-0.35,0.76-0.53,0.98-0.53c0.25,0,0.47,0.11,0.66,0.32c0.19,0.21,0.29,0.42,0.29,0.63
		c0,0.35-0.28,0.76-0.84,1.24c-0.56,0.47-1.42,0.9-2.58,1.27c-1.16,0.37-2.44,0.55-3.85,0.55c-3.13,0-5.69-0.89-7.67-2.66
		C306.19,60.83,305.2,58.52,305.2,55.68z M307.05,51.35h11.86c1.3,0,2.15-0.12,2.56-0.37c0.4-0.25,0.61-0.77,0.61-1.58
		c0-2-0.7-3.8-2.11-5.4c-1.41-1.6-3.2-2.4-5.38-2.4c-2.11,0-3.89,0.75-5.35,2.24c-1.46,1.49-2.19,3.24-2.19,5.25V51.35z"/>
	<path class="st2" d="M333.56,55.68v-6.43c0-2.6,0.93-4.83,2.79-6.7c1.86-1.86,4.09-2.79,6.7-2.79c3.2,0,5.55,1.34,7.06,4.01v-18.4
		c0-0.6,0.32-0.9,0.95-0.9c0.6,0,0.9,0.3,0.9,0.9v38.65c0,0.25-0.09,0.47-0.26,0.66c-0.18,0.19-0.39,0.29-0.63,0.29
		c-0.25,0-0.47-0.1-0.66-0.29c-0.19-0.19-0.29-0.41-0.29-0.66v-2.74c-0.6,1.13-1.56,2.07-2.87,2.85c-1.32,0.77-2.75,1.16-4.3,1.16
		c-2.5,0-4.68-0.97-6.56-2.9C334.5,60.44,333.56,58.21,333.56,55.68z M335.41,55.68c0,2,0.75,3.8,2.24,5.38
		c1.49,1.58,3.22,2.37,5.19,2.37c1.9,0,3.58-0.69,5.06-2.08c1.48-1.39,2.21-2.63,2.21-3.72v-8.38c0-2.28-0.73-4.13-2.19-5.54
		c-1.46-1.41-3.14-2.11-5.04-2.11c-2,0-3.75,0.78-5.25,2.35c-1.49,1.56-2.24,3.33-2.24,5.3V55.68z"/>
</g>
<g>
	<g>
		<path class="st2" d="M157.63,95.07c0,0.05-0.01,0.1-0.04,0.15c-0.03,0.04-0.07,0.08-0.14,0.11c-0.07,0.03-0.15,0.05-0.25,0.07
			c-0.1,0.02-0.23,0.03-0.39,0.03c-0.14,0-0.27-0.01-0.37-0.03c-0.11-0.02-0.19-0.04-0.25-0.07c-0.06-0.03-0.11-0.06-0.13-0.11
			c-0.03-0.04-0.04-0.09-0.04-0.15V79.51h-0.03l-6.78,15.65c-0.02,0.04-0.04,0.07-0.08,0.1c-0.04,0.03-0.08,0.06-0.15,0.08
			c-0.06,0.02-0.14,0.04-0.22,0.05c-0.08,0.01-0.18,0.02-0.3,0.02c-0.12,0-0.23-0.01-0.32-0.02c-0.09-0.01-0.16-0.03-0.22-0.05
			c-0.06-0.02-0.1-0.05-0.14-0.08c-0.04-0.03-0.06-0.06-0.07-0.1l-6.45-15.65h-0.01v15.55c0,0.05-0.01,0.1-0.04,0.15
			c-0.03,0.04-0.07,0.08-0.14,0.11c-0.07,0.03-0.15,0.05-0.25,0.07c-0.1,0.02-0.24,0.03-0.41,0.03c-0.15,0-0.28-0.01-0.38-0.03
			c-0.1-0.02-0.18-0.04-0.25-0.07c-0.06-0.03-0.1-0.06-0.13-0.11c-0.02-0.04-0.03-0.09-0.03-0.15V78.93c0-0.32,0.08-0.54,0.25-0.66
			s0.33-0.18,0.49-0.18h0.88c0.22,0,0.42,0.02,0.59,0.07c0.17,0.05,0.32,0.12,0.45,0.21c0.13,0.09,0.24,0.21,0.33,0.34
			c0.09,0.13,0.17,0.28,0.24,0.45l5.69,13.7h0.07l5.93-13.65c0.09-0.21,0.18-0.39,0.29-0.54c0.1-0.15,0.21-0.26,0.32-0.35
			c0.11-0.09,0.23-0.15,0.36-0.19c0.13-0.04,0.27-0.05,0.42-0.05h0.97c0.08,0,0.16,0.01,0.25,0.04c0.09,0.03,0.17,0.07,0.24,0.14
			c0.07,0.07,0.13,0.15,0.18,0.26c0.05,0.11,0.07,0.24,0.07,0.4V95.07z"/>
		<path class="st2" d="M172.21,88.42c0,0.32-0.08,0.54-0.25,0.66c-0.17,0.12-0.33,0.18-0.49,0.18h-8.22c0,0.75,0.07,1.42,0.22,2.03
			c0.15,0.6,0.39,1.12,0.73,1.55c0.34,0.43,0.78,0.76,1.32,0.99s1.21,0.35,2,0.35c0.56,0,1.06-0.05,1.51-0.15
			c0.44-0.1,0.83-0.21,1.15-0.33c0.32-0.12,0.59-0.23,0.8-0.33c0.21-0.1,0.36-0.15,0.45-0.15c0.05,0,0.1,0.01,0.15,0.04
			c0.04,0.03,0.08,0.07,0.11,0.13c0.03,0.06,0.05,0.13,0.06,0.22s0.02,0.2,0.02,0.33c0,0.06,0,0.12-0.01,0.18
			c-0.01,0.06-0.02,0.11-0.03,0.16c-0.01,0.05-0.03,0.1-0.06,0.14c-0.03,0.04-0.06,0.09-0.11,0.13c-0.04,0.04-0.18,0.12-0.41,0.23
			c-0.23,0.11-0.53,0.22-0.91,0.33c-0.37,0.11-0.81,0.21-1.3,0.3c-0.49,0.09-1.02,0.13-1.59,0.13c-0.93,0-1.76-0.14-2.48-0.42
			c-0.72-0.28-1.32-0.69-1.81-1.24c-0.49-0.55-0.86-1.22-1.11-2.03c-0.25-0.81-0.38-1.75-0.38-2.81c0-1.02,0.13-1.94,0.39-2.75
			c0.26-0.81,0.64-1.5,1.13-2.06c0.49-0.56,1.08-0.99,1.77-1.29c0.69-0.3,1.45-0.45,2.3-0.45c0.91,0,1.68,0.15,2.32,0.45
			c0.64,0.3,1.17,0.71,1.58,1.22c0.41,0.51,0.71,1.1,0.91,1.78c0.19,0.68,0.29,1.39,0.29,2.13V88.42z M170.57,87.95
			c0.03-1.28-0.27-2.28-0.88-3c-0.61-0.72-1.51-1.08-2.68-1.08c-0.6,0-1.14,0.11-1.59,0.34s-0.84,0.53-1.16,0.9
			c-0.32,0.37-0.56,0.81-0.73,1.3c-0.17,0.49-0.27,1.01-0.29,1.54H170.57z"/>
		<path class="st2" d="M185.59,95.07c0,0.06-0.01,0.12-0.03,0.16c-0.02,0.04-0.06,0.08-0.12,0.11s-0.13,0.05-0.22,0.06
			c-0.09,0.01-0.2,0.02-0.33,0.02c-0.14,0-0.26-0.01-0.35-0.02c-0.09-0.01-0.17-0.03-0.23-0.06s-0.1-0.06-0.13-0.11
			c-0.03-0.04-0.05-0.1-0.05-0.16v-1.73c-0.64,0.69-1.3,1.24-1.99,1.63c-0.68,0.39-1.43,0.59-2.24,0.59c-0.87,0-1.61-0.17-2.23-0.51
			c-0.61-0.34-1.11-0.79-1.5-1.37c-0.39-0.58-0.67-1.25-0.85-2.03s-0.27-1.6-0.27-2.47c0-1.02,0.11-1.94,0.33-2.77
			c0.22-0.82,0.55-1.52,0.99-2.1c0.44-0.58,0.97-1.02,1.61-1.33c0.64-0.31,1.38-0.47,2.23-0.47c0.73,0,1.4,0.16,2,0.49
			c0.6,0.32,1.2,0.8,1.79,1.43v-7.26c0-0.05,0.01-0.1,0.03-0.15c0.02-0.04,0.06-0.08,0.13-0.11c0.06-0.03,0.14-0.05,0.25-0.07
			c0.1-0.02,0.23-0.03,0.38-0.03c0.16,0,0.29,0.01,0.39,0.03c0.1,0.02,0.18,0.04,0.24,0.07c0.06,0.03,0.1,0.06,0.13,0.11
			c0.03,0.04,0.04,0.09,0.04,0.15V95.07z M184,86.36c-0.67-0.81-1.31-1.43-1.93-1.85c-0.62-0.43-1.26-0.64-1.94-0.64
			c-0.61,0-1.14,0.15-1.57,0.44c-0.44,0.29-0.79,0.68-1.07,1.16s-0.48,1.02-0.6,1.63s-0.19,1.22-0.19,1.84
			c0,0.67,0.05,1.32,0.16,1.95c0.11,0.63,0.29,1.19,0.55,1.69c0.26,0.49,0.6,0.89,1.03,1.19c0.43,0.3,0.96,0.45,1.6,0.45
			c0.32,0,0.63-0.04,0.93-0.13s0.61-0.24,0.93-0.44c0.32-0.2,0.65-0.47,0.99-0.79c0.34-0.32,0.71-0.73,1.1-1.21V86.36z"/>
		<path class="st2" d="M191.87,78.94c0,0.43-0.08,0.71-0.23,0.87c-0.15,0.15-0.43,0.23-0.83,0.23c-0.39,0-0.66-0.07-0.81-0.22
			s-0.22-0.43-0.22-0.86c0-0.43,0.08-0.72,0.23-0.87c0.15-0.15,0.43-0.23,0.83-0.23c0.39,0,0.66,0.07,0.81,0.22
			S191.87,78.51,191.87,78.94z M191.63,95.07c0,0.05-0.01,0.1-0.04,0.15c-0.03,0.04-0.07,0.08-0.13,0.11
			c-0.06,0.03-0.14,0.05-0.24,0.07c-0.1,0.02-0.23,0.03-0.39,0.03c-0.15,0-0.28-0.01-0.38-0.03c-0.1-0.02-0.18-0.04-0.25-0.07
			c-0.06-0.03-0.1-0.06-0.13-0.11c-0.02-0.04-0.03-0.09-0.03-0.15V83c0-0.05,0.01-0.1,0.03-0.15c0.02-0.04,0.06-0.08,0.13-0.11
			c0.06-0.03,0.14-0.05,0.25-0.07c0.1-0.01,0.23-0.02,0.38-0.02c0.16,0,0.29,0.01,0.39,0.02c0.1,0.01,0.18,0.04,0.24,0.07
			c0.06,0.03,0.1,0.07,0.13,0.11c0.03,0.04,0.04,0.09,0.04,0.15V95.07z"/>
		<path class="st2" d="M204.49,93.28c0,0.11,0,0.2-0.01,0.29c-0.01,0.08-0.02,0.16-0.04,0.22c-0.02,0.06-0.04,0.12-0.07,0.17
			c-0.03,0.05-0.1,0.13-0.22,0.25c-0.12,0.12-0.31,0.26-0.58,0.44s-0.58,0.33-0.91,0.47c-0.34,0.13-0.7,0.24-1.09,0.33
			c-0.39,0.08-0.79,0.13-1.21,0.13c-0.84,0-1.58-0.14-2.22-0.42c-0.64-0.28-1.18-0.69-1.62-1.24c-0.44-0.55-0.77-1.22-0.99-2.01
			c-0.23-0.79-0.34-1.71-0.34-2.75c0-1.17,0.14-2.18,0.42-3.01s0.66-1.52,1.15-2.05s1.06-0.93,1.71-1.18
			c0.65-0.25,1.35-0.38,2.1-0.38c0.4,0,0.78,0.04,1.15,0.11c0.36,0.08,0.7,0.18,1.01,0.3c0.31,0.13,0.58,0.27,0.82,0.43
			s0.42,0.3,0.53,0.41c0.11,0.11,0.19,0.2,0.23,0.25s0.07,0.12,0.09,0.19s0.04,0.15,0.05,0.23c0.01,0.08,0.01,0.18,0.01,0.3
			c0,0.26-0.04,0.44-0.11,0.54c-0.08,0.1-0.16,0.15-0.25,0.15c-0.12,0-0.28-0.08-0.46-0.24c-0.18-0.16-0.42-0.33-0.7-0.53
			c-0.28-0.19-0.63-0.37-1.03-0.53c-0.4-0.16-0.89-0.24-1.45-0.24c-1.16,0-2.05,0.44-2.67,1.33c-0.63,0.89-0.94,2.17-0.94,3.85
			c0,0.84,0.08,1.58,0.25,2.22c0.17,0.63,0.41,1.16,0.73,1.59s0.7,0.74,1.15,0.95s0.96,0.31,1.53,0.31c0.53,0,1-0.08,1.41-0.25
			s0.76-0.36,1.07-0.56c0.3-0.2,0.55-0.39,0.75-0.56c0.2-0.17,0.35-0.25,0.45-0.25c0.05,0,0.1,0.02,0.14,0.05s0.07,0.08,0.1,0.15
			c0.03,0.07,0.05,0.15,0.06,0.24C204.48,93.05,204.49,93.16,204.49,93.28z"/>
		<path class="st2" d="M215.86,95.07c0,0.09-0.03,0.16-0.09,0.21c-0.06,0.05-0.13,0.08-0.23,0.11c-0.09,0.02-0.22,0.03-0.38,0.03
			c-0.15,0-0.28-0.01-0.39-0.03c-0.11-0.02-0.19-0.06-0.25-0.11c-0.06-0.05-0.09-0.12-0.09-0.21v-1.35
			c-0.54,0.59-1.14,1.04-1.79,1.36c-0.65,0.32-1.33,0.48-2.03,0.48c-0.63,0-1.2-0.08-1.7-0.25c-0.5-0.17-0.93-0.4-1.27-0.71
			c-0.35-0.31-0.61-0.68-0.8-1.11s-0.28-0.92-0.28-1.47c0-0.67,0.14-1.25,0.41-1.74c0.28-0.49,0.67-0.9,1.17-1.23
			c0.51-0.33,1.11-0.58,1.83-0.74s1.5-0.25,2.37-0.25h1.92v-1.04c0-0.52-0.05-0.97-0.16-1.37c-0.11-0.4-0.28-0.73-0.52-0.99
			c-0.24-0.27-0.55-0.47-0.93-0.6c-0.38-0.13-0.85-0.2-1.4-0.2c-0.53,0-1.01,0.07-1.44,0.19c-0.43,0.13-0.8,0.27-1.12,0.43
			s-0.58,0.3-0.79,0.43c-0.21,0.13-0.36,0.19-0.45,0.19c-0.05,0-0.1-0.01-0.15-0.03s-0.08-0.05-0.11-0.1s-0.05-0.11-0.07-0.19
			c-0.01-0.08-0.02-0.17-0.02-0.27c0-0.19,0.01-0.34,0.04-0.45c0.03-0.11,0.1-0.22,0.21-0.33c0.11-0.11,0.31-0.24,0.59-0.39
			s0.61-0.29,0.98-0.42s0.77-0.23,1.19-0.31c0.43-0.08,0.85-0.12,1.28-0.12c0.83,0,1.52,0.1,2.09,0.3c0.57,0.2,1.03,0.49,1.38,0.86
			c0.35,0.37,0.6,0.83,0.75,1.38c0.15,0.55,0.23,1.17,0.23,1.86V95.07z M214.27,89.38h-2.2c-0.64,0-1.2,0.06-1.68,0.17
			c-0.48,0.12-0.88,0.28-1.2,0.51c-0.32,0.22-0.56,0.49-0.71,0.8c-0.16,0.31-0.23,0.67-0.23,1.07c0,0.69,0.22,1.25,0.66,1.66
			c0.44,0.41,1.06,0.62,1.86,0.62c0.63,0,1.22-0.16,1.77-0.49s1.13-0.82,1.74-1.5V89.38z"/>
		<path class="st2" d="M221.84,95.07c0,0.05-0.01,0.1-0.04,0.15c-0.03,0.04-0.07,0.08-0.13,0.11c-0.06,0.03-0.14,0.05-0.24,0.07
			c-0.1,0.02-0.23,0.03-0.39,0.03c-0.15,0-0.28-0.01-0.38-0.03c-0.1-0.02-0.18-0.04-0.25-0.07c-0.06-0.03-0.1-0.06-0.13-0.11
			c-0.02-0.04-0.03-0.09-0.03-0.15V77.1c0-0.05,0.01-0.1,0.03-0.15c0.02-0.04,0.06-0.08,0.13-0.11c0.06-0.03,0.14-0.05,0.25-0.07
			c0.1-0.01,0.23-0.02,0.38-0.02c0.16,0,0.29,0.01,0.39,0.02c0.1,0.01,0.18,0.04,0.24,0.07c0.06,0.03,0.1,0.07,0.13,0.11
			c0.03,0.04,0.04,0.09,0.04,0.15V95.07z"/>
		<path class="st2" d="M234.37,95.07c0,0.05-0.01,0.1-0.04,0.15c-0.03,0.04-0.07,0.08-0.13,0.11c-0.06,0.03-0.14,0.05-0.25,0.07
			c-0.1,0.02-0.23,0.03-0.39,0.03c-0.15,0-0.28-0.01-0.39-0.03c-0.11-0.02-0.19-0.04-0.25-0.07c-0.06-0.03-0.11-0.06-0.13-0.11
			c-0.03-0.04-0.04-0.09-0.04-0.15V78.35c0-0.05,0.02-0.1,0.05-0.15c0.03-0.04,0.08-0.08,0.15-0.11c0.07-0.03,0.15-0.05,0.25-0.07
			s0.22-0.03,0.37-0.03c0.16,0,0.29,0.01,0.39,0.03c0.1,0.02,0.18,0.04,0.25,0.07c0.06,0.03,0.11,0.06,0.13,0.11
			c0.03,0.04,0.04,0.09,0.04,0.15V95.07z"/>
		<path class="st2" d="M248.89,95.07c0,0.05-0.01,0.1-0.04,0.15c-0.03,0.04-0.07,0.08-0.13,0.11c-0.06,0.03-0.14,0.05-0.24,0.07
			c-0.1,0.02-0.23,0.03-0.38,0.03c-0.16,0-0.29-0.01-0.39-0.03c-0.1-0.02-0.18-0.04-0.24-0.07c-0.06-0.03-0.1-0.06-0.13-0.11
			c-0.03-0.04-0.04-0.09-0.04-0.15v-7.16c0-0.75-0.06-1.35-0.17-1.82c-0.12-0.47-0.29-0.87-0.52-1.2c-0.23-0.33-0.53-0.59-0.89-0.77
			s-0.78-0.27-1.26-0.27c-0.61,0-1.23,0.22-1.84,0.65c-0.61,0.44-1.26,1.08-1.93,1.92v8.65c0,0.05-0.01,0.1-0.04,0.15
			c-0.03,0.04-0.07,0.08-0.13,0.11c-0.06,0.03-0.14,0.05-0.24,0.07c-0.1,0.02-0.23,0.03-0.39,0.03c-0.15,0-0.28-0.01-0.38-0.03
			c-0.1-0.02-0.18-0.04-0.25-0.07c-0.06-0.03-0.1-0.06-0.13-0.11c-0.02-0.04-0.03-0.09-0.03-0.15V83c0-0.05,0.01-0.1,0.03-0.15
			c0.02-0.04,0.06-0.08,0.13-0.11c0.06-0.03,0.14-0.05,0.23-0.07s0.22-0.02,0.37-0.02c0.15,0,0.28,0.01,0.37,0.02
			s0.17,0.04,0.23,0.07s0.09,0.07,0.11,0.11c0.02,0.04,0.03,0.09,0.03,0.15v1.71c0.69-0.77,1.37-1.33,2.04-1.68
			c0.67-0.35,1.33-0.52,1.99-0.52c0.79,0,1.46,0.13,2,0.4s0.98,0.63,1.31,1.08s0.57,0.98,0.72,1.59c0.15,0.6,0.22,1.33,0.22,2.19
			V95.07z"/>
		<path class="st2" d="M259.41,77.86c0,0.12-0.01,0.22-0.02,0.3c-0.01,0.08-0.03,0.13-0.05,0.18c-0.02,0.04-0.05,0.08-0.08,0.09
			c-0.03,0.02-0.07,0.03-0.11,0.03c-0.07,0-0.16-0.02-0.25-0.07c-0.1-0.04-0.22-0.09-0.37-0.15c-0.15-0.05-0.32-0.1-0.52-0.15
			c-0.2-0.04-0.43-0.07-0.7-0.07c-0.37,0-0.69,0.06-0.95,0.18c-0.26,0.12-0.47,0.31-0.63,0.57s-0.27,0.6-0.34,1.01
			c-0.07,0.41-0.1,0.91-0.1,1.5v1.43h2.96c0.06,0,0.12,0.01,0.16,0.04c0.04,0.03,0.08,0.07,0.12,0.13c0.04,0.06,0.06,0.13,0.08,0.21
			c0.02,0.08,0.03,0.18,0.03,0.3c0,0.22-0.04,0.39-0.11,0.5c-0.07,0.11-0.16,0.17-0.28,0.17h-2.96v11c0,0.05-0.01,0.1-0.04,0.15
			c-0.03,0.04-0.07,0.08-0.13,0.11c-0.06,0.03-0.14,0.05-0.25,0.07c-0.11,0.02-0.24,0.03-0.39,0.03c-0.15,0-0.28-0.01-0.38-0.03
			c-0.1-0.02-0.18-0.04-0.25-0.07c-0.06-0.03-0.1-0.06-0.13-0.11c-0.02-0.04-0.03-0.09-0.03-0.15v-11h-1.81
			c-0.12,0-0.22-0.06-0.29-0.17c-0.07-0.11-0.1-0.28-0.1-0.5c0-0.12,0.01-0.22,0.03-0.3c0.02-0.08,0.04-0.16,0.07-0.21
			c0.03-0.06,0.07-0.1,0.12-0.13c0.05-0.03,0.1-0.04,0.17-0.04h1.81v-1.37c0-0.84,0.08-1.56,0.23-2.16
			c0.15-0.59,0.38-1.08,0.69-1.45s0.69-0.64,1.15-0.81c0.46-0.17,1-0.25,1.61-0.25c0.3,0,0.6,0.03,0.88,0.09
			c0.28,0.06,0.5,0.12,0.65,0.19c0.15,0.07,0.24,0.12,0.29,0.17s0.09,0.11,0.12,0.18c0.03,0.07,0.05,0.15,0.07,0.25
			C259.4,77.64,259.41,77.74,259.41,77.86z"/>
		<path class="st2" d="M271.32,88.91c0,0.96-0.12,1.84-0.37,2.65c-0.25,0.81-0.62,1.51-1.11,2.11c-0.49,0.6-1.11,1.06-1.85,1.39
			c-0.74,0.33-1.59,0.5-2.57,0.5c-0.94,0-1.77-0.15-2.47-0.45c-0.71-0.3-1.3-0.72-1.77-1.28c-0.48-0.56-0.83-1.23-1.07-2.02
			c-0.24-0.79-0.35-1.68-0.35-2.68c0-0.96,0.12-1.84,0.37-2.65c0.24-0.81,0.61-1.51,1.11-2.1c0.49-0.59,1.11-1.05,1.85-1.38
			c0.74-0.33,1.6-0.49,2.59-0.49c0.94,0,1.77,0.15,2.47,0.44s1.29,0.72,1.77,1.27c0.47,0.56,0.83,1.23,1.07,2.02
			C271.2,87.03,271.32,87.92,271.32,88.91z M269.65,89.06c0-0.68-0.07-1.34-0.2-1.96c-0.13-0.62-0.36-1.17-0.67-1.65
			c-0.31-0.48-0.73-0.85-1.25-1.13c-0.52-0.28-1.18-0.42-1.96-0.42c-0.72,0-1.34,0.13-1.87,0.39c-0.52,0.26-0.95,0.62-1.29,1.07
			c-0.33,0.46-0.58,1-0.74,1.62c-0.16,0.62-0.24,1.29-0.24,2.01c0,0.69,0.07,1.35,0.2,1.98c0.13,0.63,0.36,1.17,0.67,1.65
			c0.31,0.47,0.73,0.84,1.25,1.12s1.18,0.41,1.96,0.41c0.72,0,1.34-0.13,1.87-0.39c0.52-0.26,0.95-0.61,1.29-1.07
			c0.33-0.45,0.58-0.99,0.74-1.61C269.57,90.46,269.65,89.78,269.65,89.06z"/>
		<path class="st2" d="M281.57,83.62c0,0.13,0,0.25-0.01,0.34c-0.01,0.09-0.02,0.17-0.05,0.23c-0.02,0.06-0.05,0.1-0.08,0.13
			s-0.07,0.05-0.13,0.05c-0.08,0-0.17-0.02-0.28-0.06s-0.23-0.08-0.37-0.13c-0.14-0.04-0.3-0.09-0.47-0.13s-0.36-0.06-0.56-0.06
			c-0.24,0-0.48,0.05-0.71,0.15c-0.23,0.1-0.47,0.27-0.73,0.49c-0.25,0.23-0.52,0.53-0.8,0.9s-0.59,0.83-0.93,1.37v8.16
			c0,0.05-0.01,0.1-0.04,0.15c-0.03,0.04-0.07,0.08-0.13,0.11c-0.06,0.03-0.14,0.05-0.24,0.07c-0.1,0.02-0.23,0.03-0.39,0.03
			c-0.15,0-0.28-0.01-0.38-0.03c-0.1-0.02-0.18-0.04-0.25-0.07c-0.06-0.03-0.1-0.06-0.13-0.11c-0.02-0.04-0.03-0.09-0.03-0.15V83
			c0-0.05,0.01-0.1,0.03-0.15c0.02-0.04,0.06-0.08,0.13-0.11c0.06-0.03,0.14-0.05,0.23-0.07s0.22-0.02,0.37-0.02
			c0.15,0,0.28,0.01,0.37,0.02s0.17,0.04,0.23,0.07s0.09,0.07,0.11,0.11c0.02,0.04,0.03,0.09,0.03,0.15v1.91
			c0.35-0.51,0.67-0.92,0.96-1.23c0.29-0.31,0.57-0.55,0.84-0.73c0.27-0.17,0.53-0.29,0.78-0.35c0.25-0.06,0.51-0.09,0.78-0.09
			c0.12,0,0.25,0.01,0.4,0.02c0.15,0.01,0.31,0.04,0.49,0.07s0.33,0.08,0.47,0.13s0.23,0.09,0.29,0.13s0.09,0.08,0.11,0.11
			c0.02,0.03,0.03,0.07,0.05,0.12c0.01,0.05,0.02,0.12,0.03,0.2C281.57,83.38,281.57,83.48,281.57,83.62z"/>
		<path class="st2" d="M301.48,95.07c0,0.05-0.01,0.1-0.04,0.15c-0.03,0.04-0.07,0.08-0.13,0.11c-0.06,0.03-0.14,0.05-0.24,0.07
			c-0.1,0.02-0.23,0.03-0.38,0.03c-0.16,0-0.29-0.01-0.39-0.03c-0.1-0.02-0.18-0.04-0.25-0.07c-0.06-0.03-0.1-0.06-0.13-0.11
			c-0.02-0.04-0.03-0.09-0.03-0.15v-7.42c0-0.57-0.05-1.09-0.15-1.55c-0.1-0.47-0.26-0.87-0.48-1.2c-0.22-0.33-0.49-0.59-0.83-0.77
			s-0.73-0.27-1.18-0.27c-0.56,0-1.13,0.22-1.7,0.65c-0.57,0.44-1.2,1.08-1.89,1.92v8.65c0,0.05-0.01,0.1-0.04,0.15
			c-0.03,0.04-0.07,0.08-0.13,0.11c-0.06,0.03-0.14,0.05-0.24,0.07c-0.1,0.02-0.23,0.03-0.38,0.03c-0.15,0-0.28-0.01-0.38-0.03
			c-0.1-0.02-0.18-0.04-0.25-0.07c-0.06-0.03-0.1-0.06-0.13-0.11c-0.02-0.04-0.03-0.09-0.03-0.15v-7.42c0-0.57-0.05-1.09-0.16-1.55
			c-0.11-0.47-0.27-0.87-0.49-1.2c-0.22-0.33-0.49-0.59-0.83-0.77c-0.33-0.18-0.73-0.27-1.18-0.27c-0.56,0-1.13,0.22-1.7,0.65
			s-1.2,1.08-1.87,1.92v8.65c0,0.05-0.01,0.1-0.04,0.15c-0.03,0.04-0.07,0.08-0.13,0.11c-0.06,0.03-0.14,0.05-0.24,0.07
			c-0.1,0.02-0.23,0.03-0.39,0.03c-0.15,0-0.28-0.01-0.38-0.03c-0.1-0.02-0.18-0.04-0.25-0.07c-0.06-0.03-0.1-0.06-0.13-0.11
			c-0.02-0.04-0.03-0.09-0.03-0.15V83c0-0.05,0.01-0.1,0.03-0.15c0.02-0.04,0.06-0.08,0.13-0.11c0.06-0.03,0.14-0.05,0.23-0.07
			s0.22-0.02,0.37-0.02c0.15,0,0.28,0.01,0.37,0.02s0.17,0.04,0.23,0.07s0.09,0.07,0.11,0.11c0.02,0.04,0.03,0.09,0.03,0.15v1.71
			c0.69-0.77,1.35-1.33,1.97-1.68c0.62-0.35,1.24-0.52,1.85-0.52c0.51,0,0.96,0.06,1.35,0.18c0.4,0.12,0.74,0.29,1.05,0.51
			c0.3,0.22,0.56,0.48,0.77,0.78c0.21,0.3,0.39,0.63,0.52,1c0.42-0.46,0.81-0.85,1.18-1.17s0.72-0.57,1.05-0.76
			c0.33-0.19,0.66-0.33,0.97-0.41c0.31-0.08,0.62-0.13,0.92-0.13c0.76,0,1.39,0.13,1.91,0.4c0.52,0.27,0.94,0.63,1.25,1.08
			s0.54,0.98,0.68,1.59c0.14,0.6,0.21,1.24,0.21,1.92V95.07z"/>
		<path class="st2" d="M314.33,95.07c0,0.09-0.03,0.16-0.09,0.21c-0.06,0.05-0.13,0.08-0.23,0.11c-0.09,0.02-0.22,0.03-0.38,0.03
			c-0.15,0-0.28-0.01-0.39-0.03c-0.11-0.02-0.19-0.06-0.25-0.11c-0.06-0.05-0.09-0.12-0.09-0.21v-1.35
			c-0.54,0.59-1.14,1.04-1.79,1.36c-0.65,0.32-1.33,0.48-2.03,0.48c-0.63,0-1.2-0.08-1.7-0.25c-0.5-0.17-0.93-0.4-1.27-0.71
			c-0.35-0.31-0.61-0.68-0.8-1.11s-0.28-0.92-0.28-1.47c0-0.67,0.14-1.25,0.41-1.74c0.28-0.49,0.67-0.9,1.17-1.23
			c0.51-0.33,1.11-0.58,1.83-0.74s1.5-0.25,2.37-0.25h1.92v-1.04c0-0.52-0.05-0.97-0.16-1.37c-0.11-0.4-0.28-0.73-0.52-0.99
			c-0.24-0.27-0.55-0.47-0.93-0.6c-0.38-0.13-0.85-0.2-1.4-0.2c-0.53,0-1.01,0.07-1.44,0.19c-0.43,0.13-0.8,0.27-1.12,0.43
			s-0.58,0.3-0.79,0.43c-0.21,0.13-0.36,0.19-0.45,0.19c-0.05,0-0.1-0.01-0.15-0.03s-0.08-0.05-0.11-0.1s-0.05-0.11-0.07-0.19
			c-0.01-0.08-0.02-0.17-0.02-0.27c0-0.19,0.01-0.34,0.04-0.45c0.03-0.11,0.1-0.22,0.21-0.33c0.11-0.11,0.31-0.24,0.59-0.39
			s0.61-0.29,0.98-0.42s0.77-0.23,1.19-0.31c0.43-0.08,0.85-0.12,1.28-0.12c0.83,0,1.52,0.1,2.09,0.3c0.57,0.2,1.03,0.49,1.38,0.86
			c0.35,0.37,0.6,0.83,0.75,1.38c0.15,0.55,0.23,1.17,0.23,1.86V95.07z M312.75,89.38h-2.2c-0.64,0-1.2,0.06-1.68,0.17
			c-0.48,0.12-0.88,0.28-1.2,0.51c-0.32,0.22-0.56,0.49-0.71,0.8c-0.16,0.31-0.23,0.67-0.23,1.07c0,0.69,0.22,1.25,0.66,1.66
			c0.44,0.41,1.06,0.62,1.86,0.62c0.63,0,1.22-0.16,1.77-0.49s1.13-0.82,1.74-1.5V89.38z"/>
		<path class="st2" d="M328.27,82.73c0.2,0,0.34,0.05,0.41,0.15c0.07,0.1,0.11,0.24,0.11,0.42v11.77c0,0.05-0.01,0.1-0.04,0.15
			c-0.03,0.04-0.07,0.08-0.13,0.11c-0.06,0.03-0.14,0.05-0.24,0.07c-0.1,0.02-0.23,0.03-0.38,0.03c-0.16,0-0.29-0.01-0.39-0.03
			c-0.1-0.02-0.18-0.04-0.24-0.07c-0.06-0.03-0.1-0.06-0.13-0.11c-0.03-0.04-0.04-0.09-0.04-0.15v-11h-6.66v7.29
			c0,0.92,0.13,1.61,0.39,2.09c0.26,0.48,0.74,0.72,1.43,0.72c0.21,0,0.41-0.02,0.58-0.07c0.17-0.04,0.33-0.09,0.46-0.15
			c0.13-0.05,0.25-0.1,0.34-0.15c0.09-0.04,0.18-0.07,0.25-0.07c0.04,0,0.08,0.01,0.12,0.03c0.04,0.02,0.06,0.05,0.09,0.1
			c0.02,0.05,0.04,0.11,0.05,0.19c0.01,0.08,0.02,0.17,0.02,0.29c0,0.19-0.02,0.34-0.05,0.45s-0.08,0.21-0.15,0.27
			c-0.07,0.07-0.16,0.13-0.29,0.19s-0.28,0.11-0.45,0.15c-0.17,0.04-0.35,0.07-0.53,0.09c-0.19,0.02-0.37,0.03-0.55,0.03
			c-0.6,0-1.1-0.08-1.52-0.24c-0.42-0.16-0.76-0.4-1.03-0.73c-0.27-0.32-0.46-0.73-0.58-1.23c-0.12-0.5-0.18-1.08-0.18-1.76v-7.5
			h-1.8c-0.12,0-0.22-0.06-0.29-0.17c-0.07-0.11-0.11-0.28-0.11-0.5c0-0.12,0.01-0.22,0.03-0.3c0.02-0.08,0.04-0.16,0.08-0.21
			c0.04-0.06,0.08-0.1,0.13-0.13c0.05-0.03,0.1-0.04,0.17-0.04h1.8v-2.96c0-0.05,0.01-0.1,0.03-0.15c0.02-0.04,0.06-0.08,0.13-0.11
			c0.06-0.03,0.14-0.05,0.25-0.07c0.1-0.01,0.23-0.02,0.38-0.02c0.16,0,0.29,0.01,0.39,0.02c0.1,0.01,0.18,0.04,0.24,0.07
			c0.06,0.03,0.1,0.07,0.13,0.11c0.03,0.04,0.04,0.09,0.04,0.15v2.96H328.27z M329.03,78.94c0,0.43-0.08,0.71-0.23,0.87
			c-0.15,0.15-0.43,0.23-0.83,0.23c-0.39,0-0.66-0.07-0.81-0.22s-0.22-0.43-0.22-0.86c0-0.43,0.08-0.72,0.23-0.87
			c0.15-0.15,0.43-0.23,0.83-0.23c0.39,0,0.66,0.07,0.81,0.22S329.03,78.51,329.03,78.94z"/>
		<path class="st2" d="M341.67,93.28c0,0.11,0,0.2-0.01,0.29c-0.01,0.08-0.02,0.16-0.04,0.22c-0.02,0.06-0.04,0.12-0.07,0.17
			c-0.03,0.05-0.1,0.13-0.22,0.25c-0.12,0.12-0.31,0.26-0.58,0.44s-0.58,0.33-0.91,0.47c-0.34,0.13-0.7,0.24-1.09,0.33
			c-0.39,0.08-0.79,0.13-1.21,0.13c-0.84,0-1.58-0.14-2.22-0.42c-0.64-0.28-1.18-0.69-1.62-1.24c-0.44-0.55-0.77-1.22-0.99-2.01
			c-0.23-0.79-0.34-1.71-0.34-2.75c0-1.17,0.14-2.18,0.42-3.01s0.66-1.52,1.15-2.05s1.06-0.93,1.71-1.18
			c0.65-0.25,1.35-0.38,2.1-0.38c0.4,0,0.78,0.04,1.15,0.11c0.36,0.08,0.7,0.18,1.01,0.3c0.31,0.13,0.58,0.27,0.82,0.43
			s0.42,0.3,0.53,0.41c0.11,0.11,0.19,0.2,0.23,0.25s0.07,0.12,0.09,0.19s0.04,0.15,0.05,0.23c0.01,0.08,0.01,0.18,0.01,0.3
			c0,0.26-0.04,0.44-0.11,0.54c-0.08,0.1-0.16,0.15-0.25,0.15c-0.12,0-0.28-0.08-0.46-0.24c-0.18-0.16-0.42-0.33-0.7-0.53
			c-0.28-0.19-0.63-0.37-1.03-0.53c-0.4-0.16-0.89-0.24-1.45-0.24c-1.16,0-2.05,0.44-2.67,1.33c-0.63,0.89-0.94,2.17-0.94,3.85
			c0,0.84,0.08,1.58,0.25,2.22c0.17,0.63,0.41,1.16,0.73,1.59s0.7,0.74,1.15,0.95s0.96,0.31,1.53,0.31c0.53,0,1-0.08,1.41-0.25
			s0.76-0.36,1.07-0.56c0.3-0.2,0.55-0.39,0.75-0.56c0.2-0.17,0.35-0.25,0.45-0.25c0.05,0,0.1,0.02,0.14,0.05s0.07,0.08,0.1,0.15
			c0.03,0.07,0.05,0.15,0.06,0.24C341.66,93.05,341.67,93.16,341.67,93.28z"/>
		<path class="st2" d="M351.94,91.85c0,0.58-0.11,1.09-0.32,1.55c-0.21,0.46-0.52,0.85-0.91,1.17c-0.4,0.32-0.87,0.56-1.42,0.73
			c-0.55,0.17-1.16,0.25-1.83,0.25c-0.42,0-0.81-0.03-1.19-0.1c-0.37-0.07-0.71-0.15-1.01-0.25c-0.3-0.1-0.56-0.21-0.77-0.33
			c-0.21-0.12-0.36-0.22-0.46-0.31s-0.17-0.2-0.21-0.33c-0.04-0.13-0.07-0.31-0.07-0.53c0-0.12,0.01-0.22,0.03-0.31
			c0.02-0.09,0.04-0.16,0.07-0.23c0.03-0.06,0.06-0.11,0.11-0.14s0.09-0.05,0.15-0.05c0.1,0,0.24,0.06,0.43,0.19
			c0.19,0.13,0.42,0.26,0.7,0.41c0.28,0.15,0.61,0.28,1,0.41c0.39,0.12,0.83,0.19,1.34,0.19c0.41,0,0.78-0.04,1.12-0.13
			c0.34-0.09,0.63-0.22,0.88-0.4c0.25-0.18,0.44-0.41,0.58-0.69c0.14-0.28,0.21-0.61,0.21-0.98s-0.09-0.69-0.27-0.95
			s-0.41-0.48-0.7-0.67c-0.29-0.19-0.62-0.36-0.99-0.51s-0.75-0.3-1.13-0.45c-0.39-0.16-0.76-0.33-1.13-0.51s-0.7-0.41-0.99-0.68
			s-0.52-0.59-0.7-0.96s-0.27-0.82-0.27-1.35c0-0.42,0.08-0.83,0.24-1.23c0.16-0.4,0.41-0.77,0.74-1.09
			c0.33-0.32,0.76-0.58,1.28-0.77c0.52-0.2,1.13-0.29,1.85-0.29c0.3,0,0.6,0.03,0.9,0.07c0.3,0.05,0.57,0.11,0.81,0.19
			c0.24,0.08,0.46,0.17,0.63,0.26c0.18,0.09,0.31,0.18,0.41,0.25s0.16,0.13,0.19,0.18c0.03,0.05,0.05,0.1,0.07,0.15
			c0.01,0.05,0.02,0.12,0.03,0.19s0.01,0.17,0.01,0.27s-0.01,0.2-0.02,0.29c-0.01,0.08-0.03,0.16-0.06,0.22
			c-0.03,0.06-0.06,0.11-0.1,0.14s-0.09,0.05-0.14,0.05c-0.07,0-0.18-0.05-0.32-0.15c-0.14-0.1-0.33-0.2-0.56-0.32
			s-0.51-0.22-0.83-0.32s-0.69-0.15-1.11-0.15s-0.78,0.05-1.1,0.15c-0.32,0.1-0.58,0.24-0.78,0.41c-0.2,0.18-0.36,0.39-0.46,0.63
			c-0.1,0.24-0.15,0.5-0.15,0.79c0,0.39,0.09,0.72,0.27,0.99s0.41,0.5,0.71,0.69c0.29,0.2,0.63,0.37,1,0.52s0.75,0.3,1.14,0.45
			c0.39,0.15,0.77,0.32,1.14,0.5c0.37,0.18,0.71,0.4,1,0.66c0.29,0.26,0.53,0.57,0.71,0.93C351.85,90.91,351.94,91.35,351.94,91.85z
			"/>
	</g>
</g>
</svg>
